<svg version="1.1" id="Layer_1" xmlns="http://www.w3.org/2000/svg" xmlns:xlink="http://www.w3.org/1999/xlink" x="0px" y="0px"
	 viewBox="0 0 66 34" style="enable-background:new 0 0 66 34;" xml:space="preserve">
<style type="text/css">
	.st0{fill:#fff;}
</style>
<path class="st0" d="M16.1,33.1c-0.7,0-1.3,0-1.7-0.1c-0.4-0.1-0.8-0.2-1-0.4C13.2,32.5,13,32.2,13,32c0-0.3,0-0.7,0.2-1.2l0.9-3
	c0.1-0.4,0.3-0.8,0.6-1.1c0.3-0.3,0.6-0.5,1-0.7c0.4-0.2,0.9-0.3,1.5-0.4c0.6-0.1,1.3-0.1,2.1-0.1h3.4c0.7,0,1.3,0,1.7,0.1
	c0.4,0,0.8,0.2,1,0.4s0.3,0.4,0.4,0.7c0,0.3,0,0.7-0.2,1.2l-0.1,0.4c-0.1,0.4-0.3,0.8-0.5,1c-0.2,0.2-0.4,0.4-0.7,0.5
	c-0.3,0.1-0.7,0.2-1.2,0.2c-0.5,0-1.1,0-1.9,0h-4.1v0c-0.1,0.4-0.1,0.6,0,0.7c0.1,0.1,0.4,0.1,0.9,0.1h6.2l-0.7,2.2H16.1z M18,27.7
	c-0.3,0-0.5,0.1-0.6,0.4c0,0.1,0,0.3,0,0.4c0,0.1,0.2,0.1,0.3,0.1h3.7c0.3,0,0.4-0.1,0.5-0.4c0-0.1,0-0.3,0-0.4
	c0-0.1-0.1-0.1-0.3-0.1H18z"/>
<path class="st0" d="M22.6,25.6c0.7,0,1.3,0,1.7,0.1c0.4,0,0.8,0.2,1,0.4c0.2,0.2,0.3,0.4,0.3,0.6c0,0.3,0,0.7-0.2,1.1l-0.1,0.4
	c-0.1,0.4-0.3,0.8-0.5,1c-0.2,0.2-0.4,0.4-0.7,0.5c-0.3,0.1-0.7,0.2-1.2,0.2c-0.5,0-1.1,0-1.9,0H17h-0.1l0,0.1
	c-0.1,0.3-0.2,0.6,0,0.8c0.1,0,0.3,0.1,0.9,0.1H24l-0.7,2.1h-7.2c-0.7,0-1.3,0-1.7-0.1c-0.4,0-0.7-0.2-1-0.4
	c-0.2-0.2-0.3-0.4-0.3-0.6c0-0.4,0-0.8,0.2-1.2l0.9-3c0.1-0.4,0.3-0.8,0.6-1c0.2-0.3,0.6-0.5,1-0.7c0.4-0.2,0.9-0.3,1.5-0.4
	c0.6-0.1,1.3-0.1,2.1-0.1L22.6,25.6L22.6,25.6z M17.7,28.6h3.7c0.2,0,0.4-0.1,0.6-0.5c0-0.2,0-0.3,0-0.4c0-0.1-0.2-0.1-0.3-0.1h-3.7
	c-0.3,0-0.5,0.2-0.6,0.4c0,0.2,0,0.3,0,0.4C17.5,28.6,17.6,28.6,17.7,28.6z M22.6,25.4h-3.4c-0.8,0-1.5,0-2.1,0.1
	c-0.6,0.1-1.1,0.2-1.5,0.4c-0.4,0.2-0.7,0.4-1,0.8c-0.3,0.3-0.4,0.7-0.6,1.1l-0.9,2.9C13,31.3,13,31.7,13,32c0,0.3,0.2,0.5,0.4,0.7
	c0.2,0.2,0.6,0.3,1,0.4c0.4,0.1,1,0.1,1.7,0.1h7.3l0.7-2.4h-6.3c-0.5,0-0.7,0-0.9-0.1c-0.1-0.1-0.1-0.3,0-0.7h4.1c0.8,0,1.4,0,1.9,0
	c0.5,0,0.9-0.1,1.2-0.2c0.3-0.1,0.6-0.3,0.7-0.6c0.2-0.3,0.3-0.6,0.5-1.1l0.1-0.4c0.1-0.5,0.2-0.9,0.2-1.2c0-0.3-0.2-0.5-0.4-0.7
	s-0.6-0.3-1-0.4C23.9,25.4,23.3,25.4,22.6,25.4z M17.7,28.5c-0.3,0-0.3-0.1-0.3-0.4c0.1-0.2,0.3-0.4,0.5-0.4h3.7
	c0.2,0,0.3,0.1,0.2,0.4c-0.1,0.3-0.2,0.4-0.4,0.4H17.7z"/>
<path class="st0" d="M28.5,33.1c-0.7,0-1.3,0-1.7-0.1c-0.7-0.1-1-0.3-1.3-0.7c-0.2-0.3-0.2-0.8,0-1.6l0.9-3c0.2-0.7,0.5-1.2,1-1.6
	c0.4-0.4,1-0.6,1.7-0.7c0.4-0.1,1-0.1,1.8-0.1h4.4c0.7,0,1.2,0,1.7,0.1c0.7,0.1,1.1,0.3,1.3,0.6c0.2,0.3,0.2,0.8,0,1.6l-0.9,3
	c-0.2,0.7-0.5,1.2-1,1.6c-0.4,0.4-1,0.6-1.7,0.7c-0.4,0-1,0.1-1.8,0.1L28.5,33.1L28.5,33.1z M30.6,27.9c-0.4,0-0.7,0.2-0.7,0.5
	l-0.5,1.6c-0.1,0.2-0.1,0.4,0,0.4c0,0.1,0.2,0.1,0.4,0.1h2.8c0.8,0,1-0.1,1.1-0.2c0,0,0.1-0.2,0.2-0.4l0.5-1.6c0-0.2,0-0.3,0-0.4
	c0-0.1-0.1-0.1-0.2-0.2L30.6,27.9z"/>
<path class="st0" d="M35.2,25.6c0.7,0,1.2,0,1.7,0.1c0.7,0.1,1.1,0.3,1.3,0.6c0.2,0.3,0.2,0.8,0,1.5l-0.9,3
	c-0.2,0.7-0.5,1.2-0.9,1.6c-0.4,0.3-1,0.5-1.7,0.7c-0.4,0-1,0.1-1.8,0.1h-4.4c-0.7,0-1.3,0-1.7-0.1c-0.6-0.1-1-0.3-1.2-0.6
	c-0.2-0.3-0.2-0.8,0-1.5l0.9-3c0.2-0.7,0.5-1.2,0.9-1.6c0.4-0.4,1-0.6,1.7-0.7c0.4,0,1-0.1,1.8-0.1L35.2,25.6L35.2,25.6z M29.8,30.7
	h2.8c0.9,0,1.1-0.1,1.2-0.2c0.1-0.1,0.1-0.2,0.2-0.4l0.5-1.6c0-0.2,0-0.4,0-0.5c0-0.1-0.1-0.2-0.3-0.2h-0.7h-2.8
	c-0.4,0-0.7,0.2-0.8,0.6l-0.5,1.6c-0.1,0.3-0.1,0.4,0,0.5C29.3,30.7,29.5,30.7,29.8,30.7z M35.2,25.4h-4.4c-0.8,0-1.4,0-1.8,0.1
	c-0.7,0.1-1.3,0.3-1.7,0.7c-0.4,0.4-0.7,0.9-1,1.6l-0.9,3c-0.2,0.7-0.2,1.2,0,1.6c0.2,0.4,0.7,0.6,1.3,0.7c0.4,0,1,0.1,1.7,0.1h4.4
	c0.8,0,1.4,0,1.8-0.1c0.7-0.1,1.3-0.4,1.7-0.7c0.4-0.4,0.7-0.9,1-1.6l0.9-3c0.2-0.8,0.2-1.3,0-1.6c-0.2-0.4-0.7-0.6-1.4-0.7
	C36.5,25.4,35.9,25.4,35.2,25.4z M29.8,30.6c-0.2,0-0.3,0-0.4-0.1c0,0,0-0.2,0-0.4l0.5-1.6c0.1-0.3,0.3-0.5,0.7-0.5h2.8h0.7
	c0.2,0,0.3,0.2,0.2,0.5l-0.5,1.6c0,0.2-0.1,0.3-0.2,0.4c-0.1,0.1-0.4,0.1-1.1,0.1H29.8z"/>
<path class="st0" d="M56.5,33.1c-0.7,0-1.3,0-1.7-0.1c-0.7-0.1-1-0.3-1.2-0.7c-0.2-0.3-0.2-0.8,0-1.6l2.2-7c0.2-0.4,0.6-0.6,1-0.6h0
	h0.1h2.7l-0.7,2.2h1.9L60,27.8h-1.9l-0.7,2.2c-0.1,0.2-0.1,0.4,0,0.4c0.1,0,0.2,0.1,0.4,0.1H60L59.2,33L56.5,33.1L56.5,33.1z"/>
<path class="st0" d="M56.8,23.2l0,0.1h0.1h2.5l-0.7,2.1l0,0.2h0.2h1.7l-0.7,2.3h-1.8h-0.1l0,0.1l-0.7,2.2c0,0.2-0.1,0.4,0,0.5
	c0.1,0.1,0.2,0.1,0.5,0.1h2l-0.7,2.3h-2.7c-0.7,0-1.3,0-1.7-0.1c-0.6-0.1-1-0.3-1.2-0.6c-0.2-0.3-0.1-0.8,0-1.5l2.2-7
	c0.2-0.3,0.5-0.5,0.9-0.5h0V23.2z M59.6,23.2h-2.8h0h0c-0.4,0-0.8,0.3-1,0.6l-2.2,7c-0.2,0.7-0.2,1.2,0,1.6c0.2,0.4,0.6,0.6,1.3,0.7
	c0.4,0.1,1,0.1,1.8,0.1h2.7l0.8-2.5h-2.2c-0.2,0-0.3,0-0.4-0.1c0,0,0-0.2,0-0.4l0.7-2.2H60l0.8-2.5h-1.9L59.6,23.2z"/>
<path class="st0" d="M7.6,33.1l-2.5-4.5l-1.4,4.5H0.1l2.7-8.8l0,0c0-0.6,0.5-1,1.1-1h0.1h2.5l2.7,5.3l1.3-4.2v0c0,0,0,0,0-0.1v0
	l0-0.1c0.2-0.4,0.5-0.7,1-0.7h2.9l-2.9,9.3c-0.2,0.3-0.4,0.5-0.7,0.5L7.6,33.1L7.6,33.1z"/>
<path class="st0" d="M14.5,23.3l-2.9,9.2c-0.2,0.3-0.4,0.4-0.7,0.5H7.6l-2.4-4.4l-0.1-0.3L5,28.7L3.7,33H0.2l2.7-8.7h0v-0.1
	c0.1-0.5,0.5-1,1.1-1h0h0.1h2.3l2.7,5.1l0.1,0.3l0.1-0.3l1.3-4h0v-0.1c0,0,0,0,0,0v0l0-0.1c0.1-0.4,0.5-0.7,0.9-0.7H14.5z
	 M14.6,23.2h-3c-0.5,0-0.8,0.4-1,0.8l0,0.2c0,0,0,0.1,0,0.1l-1.3,4.1l-2.7-5.2H4h0c-0.6,0-1.1,0.5-1.2,1.1h0L0,33.2h3.7l1.3-4.4
	l2.5,4.4h3.3c0.3-0.1,0.7-0.3,0.8-0.6L14.6,23.2z"/>
<path class="st0" d="M50.7,25.4l0.5-1.6c0.1-0.3,0.4-0.5,0.7-0.5H55l-0.5,1.6c-0.1,0.3-0.4,0.5-0.7,0.6H50.7z"/>
<path class="st0" d="M54.9,23.3l-0.4,1.5c-0.1,0.3-0.4,0.5-0.7,0.6h-3l0.5-1.5c0.1-0.3,0.4-0.4,0.7-0.5H54.9z M55,23.2h-3.2
	c-0.3,0.1-0.6,0.3-0.8,0.6l-0.5,1.7h3.1c0.3-0.1,0.7-0.3,0.8-0.6L55,23.2z"/>
<path class="st0" d="M48.3,33.1l2-6.4c0.2-0.3,0.6-0.5,0.9-0.5h0.1H54l-2,6.3c-0.2,0.4-0.6,0.6-1,0.6h0h-0.1h0L48.3,33.1L48.3,33.1z
	"/>
<path class="st0" d="M53.9,26.3L52,32.5c-0.2,0.4-0.6,0.6-1,0.6c0,0,0,0,0,0h0l0,0h-2.6l2-6.3c0.2-0.3,0.5-0.5,0.9-0.5c0,0,0,0,0,0
	h0.1L53.9,26.3L53.9,26.3z M54.1,26.2h-2.9h0c-0.4,0-0.8,0.2-1,0.5l-2,6.4H51h0c0.4,0,0.9-0.3,1-0.6L54.1,26.2z"/>
<path class="st0" d="M38,33.1l2.9-9.3c0.2-0.4,0.6-0.6,1-0.6h0.1h8.5l-0.6,1.9c-0.1,0.3-0.4,0.5-0.7,0.6h-5.2l-0.4,1.3h3.6l-0.6,1.9
	c-0.2,0.3-0.4,0.5-0.8,0.5h-3l-1,3.2c-0.2,0.3-0.4,0.4-0.7,0.5H38z"/>
<path class="st0" d="M50.3,23.3l-0.6,1.8c-0.1,0.3-0.4,0.4-0.7,0.5h-5.2h-0.1l0,0.1l-0.3,1.2l0,0.2h0.2H47l-0.6,1.8
	c-0.2,0.3-0.4,0.4-0.7,0.5h-3h-0.1l0,0.1l-0.9,3.1C41.5,32.8,41.3,33,41,33h-3l2.8-9.2c0.2-0.4,0.5-0.5,1-0.5c0,0,0,0,0,0H42v0
	L50.3,23.3L50.3,23.3z M50.5,23.2h-8.6v0h0c-0.4,0-0.8,0.3-1,0.6l-2.9,9.4H41c0.3-0.1,0.6-0.3,0.8-0.6l1-3.2h3
	c0.3-0.1,0.7-0.3,0.8-0.6l0.6-2h-3.6l0.3-1.2h5.1c0.3-0.1,0.6-0.3,0.8-0.6L50.5,23.2z"/>
<path class="st0" d="M25.6,27.8c0.1-0.5,0.2-0.9,0.2-1.2c0-0.3-0.2-0.5-0.4-0.7c-0.3-0.2-0.6-0.3-1-0.4c-0.4-0.1-1-0.1-1.7-0.1h-3.4
	c-0.8,0-1.5,0-2.1,0.1c-0.6,0.1-1.1,0.2-1.5,0.4c-0.4,0.2-0.7,0.4-1,0.8c-0.3,0.3-0.4,0.7-0.6,1.1l-0.9,2.9C13,31.3,13,31.7,13,32
	c0,0.3,0.2,0.5,0.4,0.7c0.2,0.2,0.6,0.3,1,0.4c0.4,0.1,1,0.1,1.7,0.1h7.3l0.7-2.4h-6.3c-0.5,0-0.7,0-0.9-0.1c-0.1-0.1-0.1-0.3,0-0.7
	h4.1c0.8,0,1.4,0,1.9,0c0.5,0,0.9-0.1,1.2-0.2c0.3-0.1,0.6-0.3,0.7-0.6c0.2-0.3,0.3-0.6,0.5-1.1L25.6,27.8z M21.9,28.1
	c-0.1,0.3-0.2,0.4-0.4,0.4h-3.7c-0.3,0-0.3-0.1-0.3-0.4c0.1-0.2,0.3-0.4,0.5-0.4h3.7C21.9,27.8,21.9,27.9,21.9,28.1z"/>
<path class="st0" d="M38.3,26.2c-0.2-0.4-0.7-0.6-1.4-0.7c-0.4-0.1-1-0.1-1.7-0.1h-4.4c-0.8,0-1.4,0-1.8,0.1
	c-0.7,0.1-1.3,0.3-1.7,0.7c-0.4,0.4-0.7,0.9-1,1.6l-0.9,3c-0.2,0.7-0.2,1.2,0,1.6c0.2,0.4,0.7,0.6,1.3,0.7c0.4,0,1,0.1,1.7,0.1h4.4
	c0.8,0,1.4,0,1.8-0.1c0.7-0.1,1.3-0.4,1.7-0.7c0.4-0.4,0.7-0.9,1-1.6l0.9-3C38.5,27.1,38.5,26.5,38.3,26.2z M34.3,28.5l-0.5,1.6
	c0,0.2-0.1,0.3-0.2,0.4c-0.1,0.1-0.4,0.1-1.1,0.1h-2.8c-0.2,0-0.3,0-0.4-0.1c0,0,0-0.2,0-0.4l0.5-1.6c0.1-0.3,0.3-0.5,0.7-0.5h2.8
	h0.7C34.4,28,34.4,28.2,34.3,28.5z"/>
<path class="st0" d="M57.5,30.5c0,0,0-0.2,0-0.4l0.7-2.2H60l0.8-2.5h-1.9l0.7-2.2h-2.8h0h0c-0.4,0-0.8,0.3-1,0.6l-2.2,7
	c-0.2,0.7-0.2,1.2,0,1.6c0.2,0.4,0.6,0.6,1.3,0.7c0.4,0.1,1,0.1,1.8,0.1h2.7l0.8-2.5h-2.2C57.7,30.6,57.5,30.5,57.5,30.5z"/>
<path class="st0" d="M11.6,23.2c-0.5,0-0.8,0.4-1,0.8l0,0.2c0,0,0,0.1,0,0.1l-1.3,4.1l-2.7-5.2H4h0c-0.6,0-1.1,0.5-1.2,1.1h0L0,33.2
	h3.7l1.3-4.4l2.5,4.4h3.3c0.3-0.1,0.7-0.3,0.8-0.6l2.9-9.4H11.6z"/>
<path class="st0" d="M51.1,23.8l-0.5,1.7h3.1c0.3-0.1,0.7-0.3,0.8-0.6l0.5-1.6h-3.2C51.5,23.3,51.3,23.5,51.1,23.8z"/>
<path class="st0" d="M51.2,26.2L51.2,26.2c-0.5,0-0.8,0.2-1,0.5l-2,6.4H51h0c0.4,0,0.9-0.3,1-0.6l2-6.3H51.2z"/>
<path class="st0" d="M43.9,25.7h5.2c0.3-0.1,0.6-0.3,0.8-0.6l0.6-2h-8.6v0h0c-0.4,0-0.8,0.3-1,0.6l-2.9,9.4H41
	c0.3-0.1,0.6-0.3,0.8-0.6l1-3.2h3c0.3-0.1,0.7-0.3,0.8-0.6l0.6-2h-3.6L43.9,25.7z"/>
<path class="st0" d="M34.7,0.1c-0.3,0-2.5,0-3,1.7c-0.3,0.7-5.1,15.4-5.2,15.6c0,0.1-0.7,1.5-1.6,2.1c-0.2,0.1-0.4,0.3-0.7,0.4h0
	h3.7c0.1,0,2.6-0.1,4.3-0.9c1.9-0.9,2.6-3.2,2.6-3.2l4.7-14.3c0,0,0.3-0.7,0.8-1.3c0.1,0,0.2-0.1,0.3-0.2L34.7,0.1
	C34.7,0.1,34.7,0.1,34.7,0.1z"/>
<path class="st0" d="M11.9,1C10,1.9,9.3,4.2,9.3,4.2L4.1,19.9h5.7c0.3,0,2.5,0,3-1.7c0.3-0.7,5.1-15.4,5.1-15.6
	c0-0.1,0.7-1.5,1.6-2.1c0.2-0.1,0.4-0.3,0.7-0.4h-4C16.1,0.1,13.6,0.2,11.9,1z"/>
<path class="st0" d="M51.7,0.1h-6.6c-0.1,0-2.4,0-3,1.7c-0.2,0.7-5,15.4-5.1,15.6c0,0.1-0.7,1.5-1.6,2.1c-0.2,0.1-0.4,0.3-0.7,0.4h0
	h3.7c0.1,0,2.6-0.1,4.3-0.9c1.8-0.9,2.6-3.2,2.6-3.2l1.9-5.9c0.1-0.3,0.5-1.1,1-1.5c0.3-0.1,0.5-0.3,0.7-0.4H48l2-6.1
	c0,0,0.4-1.1,1.1-1.6C51.2,0.4,51.5,0.2,51.7,0.1z"/>
<path class="st0" d="M22,0.5c-0.3-0.1-0.6-0.2-1-0.3c-0.3,0.1-0.9,0.3-1.3,0.6c-0.8,0.5-1.4,2-1.4,2l-1.3,4l3.5,11.4
	c0,0,0.3,0.9,1.4,1.4c0.4,0.2,0.9,0.3,1.4,0.3c0.3,0,1.1-0.3,1.5-0.6c0.8-0.6,1.5-2,1.5-2l1-2.9L23.4,1.9C23.4,1.9,23.1,1,22,0.5z"
	/>
<path class="st0" d="M50.2,2.2l-1.5,4.6l12.5,0c0,0,0.9,0,1.8-0.8c0.8-0.7,1.1-1.6,1.1-1.6l1.5-4.2H53.1c-0.1,0-1.1,0.1-1.9,0.6
	C50.5,1.2,50.2,2.2,50.2,2.2z"/>
<path class="st0" d="M48.5,8.8c-0.5,0.3-0.8,1-0.9,1.3l-1.4,4.3h7.2c0,0,0.8,0,1.7-0.8c0.7-0.6,1-1.4,1-1.5l1.4-3.9h-7.1
	C50.4,8.2,49.4,8.3,48.5,8.8z"/>
</svg>
